<?xml version="1.0" encoding="utf-8"?>
<svg viewBox="-1 -11 272 434" xmlns="http://www.w3.org/2000/svg">
  <g id="a2bfc056-849c-4ec6-91e1-f91319e9ec32" data-name="Group 41" transform="matrix(0.9999999999999999, 0, 0, 0.9999999999999999, 0, 0)">
    <rect id="a0963db8-a572-4a40-8f57-be0fd9c2d8c3" data-name="Rectangle 60" y="631.235" width="931" height="2" fill="#e6e6e6" style="" transform="matrix(-1, 0, 0, 1, 0, 0)" x="-280"/>
    <g style="transform-origin: 67.416px 366.029px;" transform="matrix(-1, 0, 0, 1, 145.168033, 0)">
      <path id="fe6a134f-9064-47d4-b31c-90708736d4a8-182" data-name="Path 630" d="M 90.753 391.209 L 73.553 391.209 L 65.372 324.883 L 90.751 324.883 L 90.753 391.209 Z" fill="#feb8b8"/>
      <path id="fa849e20-ba67-4278-81ee-d1167b7aa6dc-183" data-name="Path 631" d="M 61.275 386.295 L 94.438 386.295 L 94.438 407.176 L 40.394 407.176 C 40.394 395.644 49.743 386.295 61.275 386.295 Z" fill="#2f2e41"/>
<animateTransform type="rotate" additive="sum" repeatCount="indefinite" attributeName="transform" values="0;-12;0"  dur="3s" fill="freeze" >
</animateTransform>
    </g>
    <g style="transform-origin: 47.421px 354.34px;" transform="matrix(-1, 0, 0, 1, 185.158024, 0)">
      <path id="a88ec020-2ed6-4a48-814f-7c14aebc27ac-184" data-name="Path 632" d="M 63.91 381.612 L 47.504 376.463 L 59.556 310.728 L 83.77 318.328 L 63.91 381.612 Z" fill="#feb8b8"/>
      <path id="b4b30a85-97bd-4362-a855-e6f58c99cba3-185" data-name="Path 633" d="M 37.246 368.1 L 68.888 378.03 L 62.636 397.953 L 11.072 381.771 C 14.525 370.768 26.244 364.647 37.247 368.1 L 37.246 368.1 Z" fill="#2f2e41"/>
    <animateTransform type="rotate" additive="sum" repeatCount="indefinite" attributeName="transform" values="0;12;0"  dur="3s" fill="freeze" >
</animateTransform>
    </g>
    <path id="f42c0410-8a39-47c2-9be6-23f0eea84aff-186" data-name="Path 634" d="M 99.69 216.471 C 98.939 216.471 98.194 216.607 97.49 216.871 L 84.835 221.614 C 81.9 222.725 80.221 225.818 80.888 228.885 C 84.073 243.206 94.928 291.962 100.872 318.113 C 107.921 349.132 210.757 354.896 215.131 355.126 L 215.491 355.145 L 227.06 340.614 C 231.24 327.178 229.915 316.698 223.122 309.464 C 203.299 288.359 144.116 301.455 137.059 303.112 L 105.603 220.535 C 104.665 218.087 102.315 216.471 99.693 216.471 L 99.69 216.471 Z" fill="#2f2e41" style="transform-box: fill-box; transform-origin: 50% 50%;" transform="matrix(-1, 0, 0, -1, 0.000006, 0.000049)"/>
    <path id="bb9232ec-2887-4985-b220-30c2c46adf62-187" data-name="Path 635" d="M 81.453 226.289 C 80.701 226.289 79.956 226.425 79.253 226.689 L 66.602 231.433 C 63.666 232.544 61.987 235.637 62.655 238.704 C 65.84 253.025 76.695 301.781 82.639 327.932 C 89.688 358.951 192.524 364.715 196.898 364.945 L 197.258 364.964 L 208.822 350.429 C 213.002 336.993 211.677 326.513 204.884 319.279 C 185.062 298.179 125.878 311.27 118.821 312.928 L 87.362 230.354 C 86.423 227.906 84.073 226.29 81.452 226.29 L 81.453 226.289 Z" fill="#2f2e41" style="transform-box: fill-box; transform-origin: 50% 50%;" transform="matrix(-1, 0, 0, -1, 0.000003, -0.00001)"/>
    <path id="bf752b52-878a-4c47-8a02-c5dd3ca125d0-188" data-name="Path 636" d="M 152.365 198.194 C 152.83 197.572 153.245 196.915 153.606 196.228 L 222.784 188.94 L 232.744 202.594 L 255.313 190.259 L 235.754 157.127 L 150.913 178.759 C 142.798 170.847 129.163 174.687 126.368 185.67 C 123.574 196.653 133.718 206.543 144.626 203.471 C 147.712 202.602 150.43 200.749 152.367 198.195 L 152.365 198.194 Z" fill="#feb8b8" style="transform-box: fill-box; transform-origin: 50% 50%;" transform="matrix(-1, 0, 0, -1, -0.000011, 0.000007)"/>
    <path id="ae95fee3-8471-4436-bacf-47da3ee4edce-189" data-name="Path 637" d="M 130.599 109.498 C 129.599 109.501 128.614 109.741 127.724 110.198 C 113.891 117.232 86.955 129.413 61.977 131.962 C 60.249 132.132 58.672 133.023 57.635 134.416 C 56.579 135.824 56.155 137.608 56.466 139.34 C 58.72 151.817 63.89 183.589 63.224 209.052 C 62.82 225.178 73.645 239.432 89.287 243.371 C 93.858 244.577 98.501 245.493 103.187 246.112 C 126.346 249.045 145.761 228.783 141.842 205.77 C 137.388 179.382 132.897 142.526 136.8 116.798 C 137.166 114.447 136.18 112.09 134.249 110.698 C 133.19 109.923 131.912 109.503 130.599 109.498 Z" fill="#ccc" style="transform-box: fill-box; transform-origin: 50% 50%;" transform="matrix(-1, 0, 0, -1, -0.000002, -0.000012)"/>
    <path id="f8a5325a-7268-4362-a255-60631c9bfca5-190" data-name="Path 638" d="M 137.43 120.639 C 136.567 120.64 135.715 120.818 134.924 121.162 L 116.903 128.962 C 113.707 130.35 112.237 134.063 113.618 137.262 L 127.548 169.441 C 132.398 180.871 147.804 182.764 155.277 172.849 C 158.746 168.247 159.496 162.144 157.245 156.839 C 157.214 156.768 157.184 156.697 157.153 156.627 L 143.223 124.447 C 142.221 122.139 139.946 120.644 137.43 120.639 Z" fill="#ccc" style="transform-box: fill-box; transform-origin: 50% 50%;" transform="matrix(-1, 0, 0, -1, 0.000024, -0.000005)"/>
    <g style="transform-origin: 209.196px 49.414px;" transform="matrix(-1, 0, 0, 1, -138.391971, 0)">
      <circle id="e6d27be5-fed8-4aaf-9e55-a91224dd363a" data-name="Ellipse 97" cx="188.489" cy="55.18403" r="39.273" fill="#2f2e41"/>
      <circle id="e89a297e-1488-4b62-b167-7800139de88b" data-name="Ellipse 98" cx="187.054" cy="64.37704" r="34.45" fill="#feb8b8"/>
      <path id="bfc7d311-3606-4cd9-8309-fa0ce7944c94-191" data-name="Path 639" d="M 151.984 47.448 C 168.302 57.409 186.698 63.471 205.741 65.161 L 200.074 58.372 C 204.2 59.897 208.541 60.759 212.937 60.926 C 217.4 61.055 221.66 59.061 224.42 55.551 C 226.675 51.904 227.002 47.385 225.297 43.451 C 223.57 39.584 220.883 36.223 217.49 33.688 C 205.275 24.025 189.033 21.123 174.227 25.956 C 169.227 27.45 164.748 30.323 161.305 34.245 C 158.039 38.274 151.752 41.864 153.424 46.773 L 151.984 47.448 Z" fill="#2f2e41"/>
      <path id="ec73fef4-50dc-4543-9636-3b24ac170308-192" data-name="Path 640" d="M 190.134 18.427 C 197.001 11.462 205.311 6.087 214.479 2.68 C 220.298 0.232 226.681 -0.56 232.922 0.391 C 239.075 1.629 244.893 5.885 246.61 11.922 C 248.01 16.858 246.564 22.173 244.386 26.822 C 242.208 31.471 239.3 35.778 237.538 40.598 C 229.731 61.959 246.485 84.285 269.176 82.761 C 263.131 83.572 257.559 86.413 251.65 87.924 C 245.741 89.435 238.767 89.334 234.376 85.1 C 229.73 80.621 229.637 73.339 229.862 66.89 L 230.862 38.128 C 231.032 33.239 231.178 28.193 229.414 23.628 C 227.65 19.063 223.46 15.068 218.568 15.11 C 214.86 15.141 211.579 17.388 208.605 19.603 C 205.631 21.818 202.484 24.181 198.791 24.511 C 195.098 24.841 190.881 22.111 191.157 18.411" fill="#2f2e41"/>
    <animateTransform type="rotate" additive="sum" repeatCount="indefinite" attributeName="transform" values="0;-6;0"  dur="3s" fill="freeze" >
</animateTransform>
    </g>
    <path id="ba6ab2e4-b23b-4027-ba52-bbc91f9115f8-193" data-name="Path 641" d="M 66.923 162.871 C 55.041 162.886 47.631 175.758 53.585 186.04 C 57.467 192.746 65.719 195.534 72.873 192.556 C 73.507 192.289 74.121 191.977 74.712 191.624 L 137.467 219.795 L 139.23 236.815 L 166.281 237.539 L 166.102 209.204 C 166.035 202.463 161.552 196.565 155.075 194.695 L 81.69 173.81 C 81.549 173.326 81.382 172.849 81.19 172.381 C 78.783 166.632 73.164 162.885 66.93 162.872 L 66.923 162.871 Z" fill="#feb8b8" style="transform-origin: 108.894px 200.204px;" transform="matrix(-1, 0, 0, -1, -0.000004, -0.000003)">
    
<animateTransform type="skewY" additive="sum" attributeName="transform" values="0;-6;0" dur="3s" fill="freeze" repeatCount="indefinite"></animateTransform>
</path>
    <path id="b13d6e0f-103e-49e8-b98c-f9f1d84e31ae-194" data-name="Path 642" d="M 81.282 122.49 C 80.513 122.1 79.672 121.873 78.811 121.822 L 59.211 120.617 C 55.734 120.407 52.742 123.051 52.524 126.529 L 50.373 161.529 C 49.625 173.923 62.574 182.48 73.683 176.931 C 78.827 174.362 82.214 169.248 82.573 163.51 L 84.725 128.51 C 84.878 125.997 83.527 123.633 81.284 122.49 L 81.282 122.49 Z" fill="#ccc" style="transform-box: fill-box; transform-origin: 50% 50%;" transform="matrix(-1, 0, 0, -1, 0.000007, 0.000008)"/>
    <rect id="ef169b54-99b1-4807-9c68-842c3cbd65db" data-name="Rectangle 91" x="-212.112" y="231.258" width="120.625" height="9.818" rx="1.778" fill="#3f3d56" style="" transform="matrix(-1, 0, 0, 1, 0, 0)"/>
    <path id="ba69314c-00f4-451f-ada7-fcdfd2edc53a-195" data-name="Path 643" d="M 114.028 163.231 L 114.028 231.96 C 114.034 236.993 118.112 241.071 123.145 241.077 L 247.978 241.077 C 253.011 241.072 257.09 236.993 257.095 231.96 L 257.095 163.231 C 257.09 158.198 253.011 154.12 247.978 154.114 L 123.145 154.114 C 118.112 154.12 114.034 158.198 114.028 163.231 Z" fill="#3f3d56" style="transform-box: fill-box; transform-origin: 50% 50%;" transform="matrix(-1, 0, 0, -1, 0.000001, 0.000021)"/>
    <circle id="bf28e027-707c-49c1-b6c0-ef0059b61f2f" data-name="Ellipse 99" cx="-184.06" cy="197.599" r="8.416" fill="#fff" style="" transform="matrix(-1, 0, 0, 1, 0, 0)"/>
  </g>
</svg>