<?xml version="1.0" encoding="utf-8"?>
<svg viewBox="0 147 454 489" xmlns="http://www.w3.org/2000/svg">
  <path d="M259.41093,737.88172a3.61323,3.61323,0,0,1-2.61865-6.26262c.09111-.36213.15647-.62217.24758-.9843a9.70742,9.70742,0,0,0-17.99686-.16973c-4.28226,10.0234-9.82453,20.4-7.06826,31.44011-18.206-38.58538-12.01458-86.582,14.89139-119.57967,7.43714-4.09684,13.46508-11.37558,15.03439-19.82719-3.6807,1.24714-8.26984-1.74675-5.50237-5.62382,1.19955-1.48179,2.41075-2.95192,3.61019-4.4338-13.98171-14.89038-30.64069,8.512-15.25086,28.60947A115.84683,115.84683,0,0,0,231.74614,661.402a48.70929,48.70929,0,0,0-2.908-22.62447c-2.78346-6.71479-8.00064-12.37-12.595-18.17495-5.58608-7.07308-17.083-3.80993-17.8347,5.16593,5.15526,1.69443,5.825,9.14116-.072,10.16036,1.54455,16.69795,12.45345,32.04321,27.47828,39.36635a116.2989,116.2989,0,0,0-6.35539,48.6114c-2.65207-19.25-23.31569-23.92147-37.75859-31.57247a5.626,5.626,0,0,0-8.58011,5.69851,32.49481,32.49481,0,0,1,5.69584,3.00488,4.91123,4.91123,0,0,1-2.28162,8.96546c7.28014,18.01805,26.10227,30.11728,45.43371,30.04916a119.56278,119.56278,0,0,0,8.03167,23.447H258.692c.10291-.3188.19542-.64792.288-.96672a32.59875,32.59875,0,0,1-7.93916-.473c7.02637-8.31908,12.46031-12.56336,8.371-24.17721Z" transform="matrix(1, 0, 0, 1, -158.10583831163675, -133.32498451497764)" fill="#f2f2f2"/>
  <polygon points="253.397 607.84 265.228 607.84 270.856 562.209 253.395 562.21 253.397 607.84" fill="#ffb6b6" transform="matrix(1, 0, 0, 1, -1.4210854715202004e-14, 0)"/>
  <path d="M427.27,742.23v-8.02l-3.11005.19-12.66.75-2.93.18-2.24,26.86-.12,1.44h8.4l.27-1.43,1.22-6.5,3.15,6.5.69,1.43h22.27a5.03191,5.03191,0,0,0,5-5.01C448.15,754.23,429.63,744.74,427.27,742.23Z" transform="matrix(1, 0, 0, 1, -158.10583831163675, -133.32498451497764)" fill="#2f2e41"/>
  <polygon points="114.802 594.963 125.091 600.801 152.505 563.891 137.318 555.275 114.802 594.963" fill="#ffb6b6" transform="matrix(1, 0, 0, 1, -1.4210854715202004e-14, 0)"/>
  <path d="M286.1,736.99l3.95-6.97-2.78-1.37-11.39-5.59-2.64-1.3-12.97,18.99-3.05,4.46,3.45,1.96,3.85,2.19,5.22-6.16-.58,8.79,18.19,10.33h.01l1.17.66a5.00819,5.00819,0,0,0,6.82-1.89C298.33,757.73,286.91,740.35,286.1,736.99Z" transform="matrix(1, 0, 0, 1, -158.10583831163675, -133.32498451497764)" fill="#2f2e41"/>
  <g style="transform-origin: 253.806px 269.161px;">
    <path d="M 297.126 229.398 C 290.702 230.38 286.685 236.881 288.681 243.065 L 270.578 258.734 L 277.417 272.057 L 302.671 249.571 C 310.182 246.515 311.569 236.474 305.167 231.497 C 302.887 229.725 299.98 228.966 297.126 229.398 L 297.126 229.398 Z" fill="#ffb6b6"/>
    <path d="M 278.064 271.475 L 271.264 258.145 L 270.564 256.775 C 263.284 259.335 248.984 267.695 242.464 271.965 C 240.074 268.635 226.784 254.145 215.294 248.585 C 215.294 248.575 215.284 248.585 215.284 248.585 C 214.494 248.205 213.714 247.865 212.944 247.565 C 211.164 246.85 209.272 246.457 207.354 246.405 C 206.504 246.4 205.658 246.522 204.844 246.765 C 203.988 247.016 203.187 247.426 202.484 247.975 C 200.614 249.415 199.194 251.925 198.394 255.805 C 198.301 257.646 198.542 259.489 199.104 261.245 C 202.304 271.855 214.944 283.705 219.414 291.345 C 219.854 292.525 224.244 304.145 231.174 308.265 C 231.539 308.486 231.916 308.687 232.304 308.865 C 232.734 308.925 233.164 308.975 233.614 308.995 L 233.624 308.995 C 234.326 309.045 235.031 309.055 235.734 309.025 C 236.094 309.015 236.464 308.985 236.834 308.955 C 236.914 308.945 236.984 308.945 237.064 308.935 C 239.373 308.68 241.649 308.184 243.854 307.455 C 244.104 307.375 244.354 307.295 244.604 307.205 C 246.5 306.559 248.359 305.811 250.174 304.965 C 251.224 304.485 252.264 303.965 253.304 303.425 C 254.564 302.765 255.824 302.065 257.054 301.335 C 258.114 300.725 259.154 300.085 260.174 299.425 L 260.174 299.415 C 260.414 299.275 260.654 299.115 260.894 298.945 L 260.904 298.945 C 270.024 293.015 277.464 286.125 278.894 283.275 C 279.962 281.685 280.829 279.969 281.474 278.165 L 278.064 271.475 Z" fill="#2f2e41"/>
  
<animateTransform type="rotate" additive="sum" attributeName="transform" values="0;-20;0" begin="0s" dur="6s" fill="freeze" repeatCount="indefinite" ></animateTransform>

  </g>
  <path d="M394.7816,451.69324s25.07055,28.20826,18.76869,34.51012S397.4419,494.16,397.4419,494.16l-11.989-.92411Z" transform="matrix(1, 0, 0, 1, -158.10583831163675, -133.32498451497764)" fill="#2f2e41"/>
  <path d="M364.02652,376.02124c32.33536,18.91875,43.20835,36.9921,28.25419,73.361Z" transform="matrix(1, 0, 0, 1, -158.10583831163675, -133.32498451497764)" fill="#2f2e41"/>
  <path d="M335.03794,527.266c-2.62328-1.2203-9.13947,97.21867-9.67074,99.69217L288.00186,696.594,341.186,720.43428l34.96954-121.422,5.82826,44.6833-7.771,70.91045,34.37738,8.31358,23.778-1.69843-16.514-201.86784-31.33684-56.82089Z" transform="matrix(1, 0, 0, 1, -158.10583831163675, -133.32498451497764)" fill="#2f2e41"/>
  <path d="M361.23844,378.80994c43.90571,32.68844,33.18493,33.27049,33.54245,83.72334l20.92092,55.9101s-73.75317,28.564-81.31541,9.65845S361.23844,378.80994,361.23844,378.80994Z" transform="matrix(1, 0, 0, 1, -158.10583831163675, -133.32498451497764)" fill="#6c63ff"/>
  <path d="M395.35,447.16c-.09-.32-.2-.69-.32-1.08v-.01c-.19-.63-.41-1.32-.67-2.11005-.16-.5-.33-1.04-.52-1.61-.12006-.36-.24-.73-.37006-1.12-3.52-10.63-10.62-30.45-19.24-52.36v-.01q-1.56-3.945-3.18-7.97c-.1-.24-.19-.49-.29-.73-.43-1.07-.87-2.15-1.31-3.23L356.82,364.3l-6.81-4.44-15,13.85s.01.24.03.71c.21,4.27,1.24,27.33,1.37,54.59.03,6.87.01,14.01-.11,21.18v.19c-.03,1.88,0,3.34.09,4.52a19.69382,19.69382,0,0,0,.29,2.5c.56,3.08,1.59,3.8,2.14,10.21,0,0-11.8,15.21-4.95,28.23a9.38872,9.38872,0,0,0,1.64.1c2.42.04,8.06-.11,23.57-.12,2.69-.02,5.67-.02,8.98-.01,21.69,0,10-12.55,21.59-23.98.25-.25.5-.49.77-.73a26.25022,26.25022,0,0,1,2.6-2.07l1.94-6.02.62-1.93.01-.25.06-2.67.13-5.32.09-3.54A13.14559,13.14559,0,0,0,395.35,447.16Z" transform="matrix(1, 0, 0, 1, -158.10583831163675, -133.32498451497764)" fill="#2f2e41"/>
  <polygon points="183.259 274.171 179.814 295.671 203.133 305.289 183.259 274.171" opacity="0.2" transform="matrix(1, 0, 0, 1, -1.4210854715202004e-14, 0)"/>
  <path d="M326.60136,448.837c13.83259,16.30165,37.40515,18.65536,55.3076,7.71571Z" transform="matrix(1, 0, 0, 1, -158.10583831163675, -133.32498451497764)" opacity="0.2"/>
  <path d="M404.4871,432.63234c7.41429-.14769,47.23975-1.29075,53.77054-1.00965.36943-1.2933,12.74985,14.57255,13.05093,14.67089a1.80834,1.80834,0,0,1-.60481,2.90759c-.72777.44213-64.93166-.74561-65.70956-.59064a1.7859,1.7859,0,0,1-1.59378-1.03833l-.42914-.96115c-.04458-1.64432-.58291-10.048-.09965-11.48484A1.77815,1.77815,0,0,1,404.4871,432.63234Z" transform="matrix(1, 0, 0, 1, -158.10583831163675, -133.32498451497764)" fill="#3f3d56"/>
  <path d="M402.97138,446.60953c.37681.90549.85882,2.04315,2.02291,2.00138l65.03159.7298a1.7939,1.7939,0,0,0,1.56527-2.63308Z" transform="matrix(1, 0, 0, 1, -158.10583831163675, -133.32498451497764)" opacity="0.17" style="isolation:isolate"/>
  <path d="M457.95379,431.428c.7-1.21052,18.08616-87.2383,19.53727-87.95769l11.87032-14.52105,1.06094-.79779c1.47535-.81045,5.01435-.26247,4.69564,1.99087h0c-2.7887,13.37007-20.7256,89.51848-21.11867,101.39039L471.84015,446.657a1.86252,1.86252,0,0,1-2.29966,1.52983,3.58265,3.58265,0,0,1-2.87739-2.07911C466.50124,445.574,457.141,431.73787,457.95379,431.428Z" transform="matrix(1, 0, 0, 1, -158.10583831163675, -133.32498451497764)" fill="#3f3d56"/>
  <path d="M489.36425,328.94986,466.66087,446.11078c.75925,1.92173,4.312,3.26805,5.13947.74718.01446-.00347,23.29115-116.64351,23.31482-116.71324C495.36316,327.33759,490.72469,327.24855,489.36425,328.94986Z" transform="matrix(1, 0, 0, 1, -158.10583831163675, -133.32498451497764)" opacity="0.17" style="isolation:isolate"/>
  <polygon points="330.574 200.416 319.044 216.487 306.102 277.953 312.118 283.201 330.574 200.416" fill="#6c63ff" transform="matrix(1, 0, 0, 1, -1.4210854715202004e-14, 0)"/>
  <path d="M411.41,436.75c-.24-1.86-.7-3.57-2.05-3.44-1.99-.01-1.56,2.7-1.08,4.98a12.53882,12.53882,0,0,1,.46,2.76l3.19-.13A26.31891,26.31891,0,0,1,411.41,436.75Z" transform="matrix(1, 0, 0, 1, -158.10583831163675, -133.32498451497764)" fill="#2f2e41"/>
  <path d="M430.21,436.31c-.02-.53.01-1.21-.06-1.85-.11-1.06-.47-1.98-1.68-1.91a1.60032,1.60032,0,0,0-.65.13c-1.29.58-.76,2.93-.78,4.07l1.04-.04,2.15-.08C430.22,436.53,430.21,436.42,430.21,436.31Z" transform="matrix(1, 0, 0, 1, -158.10583831163675, -133.32498451497764)" fill="#2f2e41"/>
  <path d="M436.58,436.05c-.05-1.4.2-3.87-1.74-3.76-2.1.04-1.41,2.9-1.43006,4.21l1.03-.04,2.16-.09C436.59,436.27,436.58,436.16,436.58,436.05Z" transform="matrix(1, 0, 0, 1, -158.10583831163675, -133.32498451497764)" fill="#2f2e41"/>
  <path d="M442.95,435.8c-.05-1.41.2-3.88-1.74-3.76-2.1.04-1.41,2.9-1.43,4.2l1.04-.04,2.15-.08C442.96,436.02,442.95,435.91,442.95,435.8Z" transform="matrix(1, 0, 0, 1, -158.10583831163675, -133.32498451497764)" fill="#2f2e41"/>
  <path d="M449.32,435.54c-.05-1.4.2-3.87-1.74-3.76-2.1.05-1.41,2.9-1.43,4.21l1.03-.04,2.16-.09C449.33,435.76,449.32,435.65,449.32,435.54Z" transform="matrix(1, 0, 0, 1, -158.10583831163675, -133.32498451497764)" fill="#2f2e41"/>
  <path d="M455.69,435.29c-.04-1.26.15-3.36-1.19-3.71h-.01a1.50566,1.50566,0,0,0-.54-.05,1.46387,1.46387,0,0,0-.44.06h-.01c-1.54.43-.96,2.94-.98,4.14l1.04-.04,2.15-.08C455.7,435.51,455.69,435.4,455.69,435.29Z" transform="matrix(1, 0, 0, 1, -158.10583831163675, -133.32498451497764)" fill="#2f2e41"/>
  <path d="M418.28,432.75v-.01a3.11478,3.11478,0,0,0-.08-.44c-.16-.85-.57-1.51-1.6-1.45-1.01.02-1.37.68-1.48,1.52a13.3303,13.3303,0,0,0,.04,2.29c.01.15.01.28.01.4l3.19-.13C418.31,434.37,418.36,433.53,418.28,432.75Z" transform="matrix(1, 0, 0, 1, -158.10583831163675, -133.32498451497764)" fill="#2f2e41"/>
  <path d="M424.6,432.14c-.16-.89-.57-1.61-1.63-1.54-1.05.02-1.4.74-1.49,1.62a23.27806,23.27806,0,0,0,.06,2.58l3.19-.13C424.67,434.03,424.75,433,424.6,432.14Z" transform="matrix(1, 0, 0, 1, -158.10583831163675, -133.32498451497764)" fill="#2f2e41"/>
  <path d="M430.98,431.99c-.13995-.94-.53-1.71-1.63995-1.65-1.09.02-1.42005.79-1.5,1.72a4.23306,4.23306,0,0,0-.02.62c.01.69.1,1.39.09,1.87l2.24-.09.95-.04C431.04,433.8,431.12,432.83,430.98,431.99Z" transform="matrix(1, 0, 0, 1, -158.10583831163675, -133.32498451497764)" fill="#2f2e41"/>
  <path d="M416.54,436.59c-2.1.04-1.42,2.9-1.43,4.2l3.19-.12C418.18,439.36,418.64,436.46,416.54,436.59Z" transform="matrix(1, 0, 0, 1, -158.10583831163675, -133.32498451497764)" fill="#2f2e41"/>
  <path d="M422.91,436.33c-2.1.04-1.42,2.9-1.43,4.21l3.19-.13C424.55,439.11,425.01,436.21,422.91,436.33Z" transform="matrix(1, 0, 0, 1, -158.10583831163675, -133.32498451497764)" fill="#2f2e41"/>
  <path d="M430.21,436.31a1.40545,1.40545,0,0,0-.93-.23,1.31958,1.31958,0,0,0-1.2.63c-.57.92-.22,2.64-.23,3.57l3.19-.12C430.94,439.1,431.23,436.98,430.21,436.31Z" transform="matrix(1, 0, 0, 1, -158.10583831163675, -133.32498451497764)" fill="#2f2e41"/>
  <path d="M436.58,436.05a1.3893,1.3893,0,0,0-.93-.23,1.32344,1.32344,0,0,0-1.21.63995c-.55.93-.21,2.64-.22,3.57l3.19-.13C437.31,438.85,437.6,436.74,436.58,436.05Z" transform="matrix(1, 0, 0, 1, -158.10583831163675, -133.32498451497764)" fill="#2f2e41"/>
  <path d="M442.95,435.8a1.4051,1.4051,0,0,0-.93-.23,1.31934,1.31934,0,0,0-1.2.63c-.57.92-.22,2.64-.23,3.57l3.19-.12C443.68,438.59,443.97,436.47,442.95,435.8Z" transform="matrix(1, 0, 0, 1, -158.10583831163675, -133.32498451497764)" fill="#2f2e41"/>
  <path d="M449.32,435.54a1.38926,1.38926,0,0,0-.93-.23,1.31241,1.31241,0,0,0-1.21.64c-.55.93-.21,2.64-.22,3.57l3.19-.13C450.05,438.34,450.34,436.23,449.32,435.54Z" transform="matrix(1, 0, 0, 1, -158.10583831163675, -133.32498451497764)" fill="#2f2e41"/>
  <path d="M455.69,435.29a1.405,1.405,0,0,0-.93-.23,1.30821,1.30821,0,0,0-1.2.63c-.56.93-.22,2.64-.23,3.57l3.19-.12C456.42,438.08,456.71,435.97,455.69,435.29Z" transform="matrix(1, 0, 0, 1, -158.10583831163675, -133.32498451497764)" fill="#2f2e41"/>
  <g style="transform-origin: 170.871px 209.737px;">
    <path  d="M 217.7 179.643 C 243.786 194.487 222.371 233.654 195.798 219.707 C 169.712 204.863 191.128 165.697 217.7 179.643 Z" fill="#ffb6b6"/>
    <path  d="M 231.649 187.874 C 229.821 190.251 226.002 189.136 218.524 190.833 C 218.54 188.298 218.247 185.77 217.652 183.307 C 217.095 186.357 215.876 189.249 214.08 191.777 C 207.586 192.497 215.546 212.224 212.221 226.729 C 207.938 196.129 198.927 204.146 203.479 210.215 C 206.393 214.101 204.45 225.757 195.708 219.929 C 181.284 226.785 160.739 192.731 183.509 176.76 C 183.102 168.127 192.707 166.763 198.622 169.418 C 212.977 158.724 229.377 172.426 231.649 187.874 Z" fill="#2f2e41"/>
    <path  d="M 188.244 169.035 C 188.054 169.115 187.864 169.195 187.694 169.285 L 187.684 169.285 C 187.524 169.365 187.364 169.445 187.204 169.535 C 187.184 169.545 187.174 169.555 187.154 169.565 C 186.944 169.365 186.734 169.165 186.514 168.965 C 186.457 169.291 186.471 169.625 186.554 169.945 L 186.584 170.065 C 186.784 170.275 186.994 170.475 187.214 170.685 C 187.414 170.535 187.604 170.375 187.804 170.225 C 187.924 170.125 188.044 170.025 188.174 169.925 C 188.194 169.665 188.224 169.365 188.254 169.035 L 188.244 169.035 Z M 194.264 157.915 C 189.804 156.895 188.364 162.725 187.934 165.535 C 186.314 155.335 179.574 158.545 181.904 165.505 C 182.647 167.566 183.816 169.447 185.334 171.025 C 185.544 171.265 185.774 171.505 186.014 171.745 C 185.744 173.145 187.104 172.785 188.944 171.495 C 190.303 170.529 191.559 169.426 192.694 168.205 C 196.364 164.355 199.224 159.205 194.264 157.915 Z M 194.404 163.655 C 193.028 165.429 191.484 167.067 189.794 168.545 C 189.264 169.025 188.724 169.485 188.174 169.925 C 188.164 170.015 188.164 170.095 188.154 170.165 C 188.116 170.262 188.069 170.356 188.014 170.445 C 187.454 171.455 186.824 170.905 186.584 170.065 C 186.564 170.035 186.534 170.005 186.514 169.975 C 185.715 169.149 185.02 168.229 184.444 167.235 C 180.314 160.075 186.964 155.205 186.634 168.575 C 186.573 168.698 186.533 168.829 186.514 168.965 C 186.457 169.291 186.471 169.625 186.554 169.945 L 186.584 170.065 C 186.784 170.275 186.994 170.475 187.214 170.685 C 187.414 170.535 187.604 170.375 187.804 170.225 C 187.924 170.125 188.044 170.025 188.174 169.925 C 188.194 169.665 188.224 169.365 188.254 169.035 L 188.254 169.025 C 188.514 166.345 189.224 161.525 190.534 160.215 C 193.414 158.005 197.144 160.395 194.404 163.655 Z M 188.244 169.035 C 188.054 169.115 187.864 169.195 187.694 169.285 L 187.684 169.285 C 187.524 169.365 187.364 169.445 187.204 169.535 C 187.184 169.545 187.174 169.555 187.154 169.565 C 186.944 169.365 186.734 169.165 186.514 168.965 C 186.457 169.291 186.471 169.625 186.554 169.945 L 186.584 170.065 C 186.784 170.275 186.994 170.475 187.214 170.685 C 187.414 170.535 187.604 170.375 187.804 170.225 C 187.924 170.125 188.044 170.025 188.174 169.925 C 188.194 169.665 188.224 169.365 188.254 169.035 L 188.244 169.035 Z" fill="#2f2e41"/>
    <path  d="M 164.717 165.546 C 158.909 201.254 127.779 158.979 113.142 194.119 C 108.54 206.845 116.436 215.949 121.431 226.512 C 122.571 235.193 111.278 239.597 110.095 247.588 C 109.765 265.908 139.321 264.787 147.583 253.229 C 156.073 241.129 145.935 224.896 151.038 211.909 C 158.21 193.878 187.378 193.744 189.919 172.767 C 184.998 165.759 171.765 157.733 164.717 165.546 Z" fill="#2f2e41"/>
  <animateTransform type="rotate" additive="sum" attributeName="transform" values="0;20;0" dur="6s" fill="freeze" repeatCount="indefinite"></animateTransform>
  </g>
  <path d="M597.77486,763.88684c-.76734,2.27271-438.84115,2.27263-439.669.00551C158.87218,761.61414,596.94593,761.6142,597.77486,763.88684Z" transform="matrix(1, 0, 0, 1, -158.10583831163675, -133.32498451497764)" fill="#ccc"/>
  <path d="M497.16031,388.45536a5.5,5.5,0,0,0-5.5,5.49994v53.20618h-105.5a5.5,5.5,0,0,0,0,11h105.5v306h11V393.9553A5.5,5.5,0,0,0,497.16031,388.45536Z" transform="matrix(1, 0, 0, 1, -158.10583831163675, -133.32498451497764)" fill="#e6e6e6"/>
  <path d="M406.04419,443.58162a10.54869,10.54869,0,0,0-16.05809.48494l-23.05092-6.47118-7.349,13.04884,32.68071,8.68137a10.5339,10.5339,0,0,0,13.77734-15.744Z" transform="matrix(1, 0, 0, 1, -158.10583831163675, -133.32498451497764)" fill="#ffb6b6"/>
  <path d="M354.62,428.25c-1.67-.87-3.34-1.72-4.97-2.51-3.54-1.75-6.83-3.28-9.25-4.32a83.63647,83.63647,0,0,0,2.82-11.02c2.84-14.32,4.77-36.63995-8.18-35.98a16.8975,16.8975,0,0,0-5.44,1.32c-10.09,5.61-13.55,27.92-18.07,37.13-.79,1.07-8.81006,12.19-7.52,20.42,3.66,8,15.3,14.84,26.21,19.29l.01.01c2.1.86,4.18,1.63,6.16,2.31,2.26.77,4.41,1.41,6.34,1.91,3.85,1,6.86005,1.45,8.31,1.25a23.42955,23.42955,0,0,0,5.69-.66l2.29-4.04,1.41-2.5,7.37-13.02.76-1.34A110.02578,110.02578,0,0,0,354.62,428.25Z" transform="matrix(1, 0, 0, 1, -158.10583831163675, -133.32498451497764)" fill="#2f2e41"/>
</svg>