<?xml version="1.0" encoding="utf-8"?>
<svg viewBox="-5 274 434 433" xmlns="http://www.w3.org/2000/svg">
  <path id="aabd4afe-642c-4327-a3f2-08ec89276309-55" data-name="Path 482" d="M305.95759,803.97637s-12.753-31.391,25.505-54.934Z" transform="matrix(1, 0, 0, 0.9999999999999999, -157.39962768554685, -95.84172058105469)" fill="#f0f0f0"/>
  <path id="e302a207-98de-4798-aedc-79a63cff2427-56" data-name="Path 483" d="M290.27363,803.40533s-3.89-22.374-34-22.182Z" transform="matrix(1, 0, 0, 0.9999999999999999, -157.39962768554685, -95.84172058105469)" fill="#f0f0f0"/>
  <path d="M512.72772,575.74828a10.6636,10.6636,0,0,0,8.99946-13.652L552.462,539.92876l-18.40925-6.99159-26.364,22.12251a10.72142,10.72142,0,0,0,5.03894,20.6886Z" transform="matrix(1, 0, 0, 0.9999999999999999, -157.39962768554685, -95.84172058105469)" fill="#ffb6b6"/>
  <polygon points="332.796 697.353 323.037 697.352 318.394 659.71 332.798 659.71 332.796 697.353" fill="#ffb6b6" transform="matrix(1, 0, 0, 0.9999999999999999, 0, 0)"/>
  <path d="M492.68433,802.65467l-31.4677-.00116v-.398a12.24876,12.24876,0,0,1,12.24811-12.24791h.00077l19.2194.00078Z" transform="matrix(1, 0, 0, 0.9999999999999999, -157.39962768554685, -95.84172058105469)" fill="#2f2e41"/>
  <polygon points="258.253 697.353 248.494 697.352 243.852 659.71 258.255 659.71 258.253 697.353" fill="#ffb6b6" transform="matrix(1, 0, 0, 0.9999999999999999, 0, 0)"/>
  <path d="M418.14189,802.65467l-31.4677-.00116v-.398a12.24876,12.24876,0,0,1,12.2481-12.24791h.00078l19.2194.00078Z" transform="matrix(1, 0, 0, 0.9999999999999999, -157.39962768554685, -95.84172058105469)" fill="#2f2e41"/>
  <polygon points="265.791 488.031 245.109 601.135 237.875 690.973 261.361 689.818 274.73 602.578 307.96 526.618 317.85 689.608 339.47 689.678 351.103 483.507 265.791 488.031" fill="#2f2e41" transform="matrix(1, 0, 0, 0.9999999999999999, 0, 0)"/>
  <path d="M511.15006,454.415l-28.9889-11.5343-33.25612,3.805L420.71221,462.271s8.624,108.15764-3.87664,133.52747c0,0,10.016,13.87358,50.82643,10.48683,0,0,39.75312-5.02431,40.73853-18.06008s1.19332-36.737,1.19332-36.737l13.7989-47.55075Z" transform="matrix(1, 0, 0, 0.9999999999999999, -157.39962768554685, -95.84172058105469)" fill="#6c63ff"/>
  <path d="M432.044,464.353l-11.33183-2.082s-12.05733,5.28675-11.93358,21.04064-21.30125,68.5705,4.33154,70.78479S432.044,516.64233,432.044,516.64233Z" transform="matrix(1, 0, 0, 0.9999999999999999, -157.39962768554685, -95.84172058105469)" fill="#6c63ff"/>
  <path d="M501.95577,461.12606l9.19429-6.71109s14.03761,3.17112,19.23007,14.47145c0,0,57.56571,41.74991,41.73193,57.58369s-48.11032,35.3215-48.11032,35.3215l-11.95038-13.53107,29.64882-26.85964-24.323-22.15808Z" transform="matrix(1, 0, 0, 0.9999999999999999, -157.39962768554685, -95.84172058105469)" fill="#6c63ff"/>
  <g style="transform-origin: 307.545px 313.336px;" transform="matrix(0.999079, 0.0429043, -0.0429043, 0.999079, 0, 0)">
    <path d="M 329.856 317.051 C 329.844 335.372 310.003 346.81 294.143 337.639 C 286.792 333.389 282.262 325.543 282.257 317.051 L 282.257 316.138 C 282.974 297.831 303.24 287.166 318.736 296.941 C 325.641 301.297 329.831 308.888 329.837 317.051 L 329.856 317.051 Z" fill="#ffb6b6"/>
    <path d="M 309.674 313.215 C 311.196 312.965 312.846 312.728 314.211 313.428 C 317.176 314.944 316.494 319.244 318.114 322.082 C 318.754 323.208 319.789 324.128 320.215 325.346 C 320.641 326.564 320.38 328.086 321.05 329.262 C 322.018 330.961 324.643 331.211 326.366 330.2 C 327.996 329.07 329.177 327.404 329.703 325.492 C 330.276 323.872 330.757 322.082 332.139 321.022 C 332.642 320.736 333.093 320.368 333.473 319.932 C 333.759 319.355 333.869 318.707 333.79 318.069 C 333.79 313.952 333.15 310.761 334.082 306.772 C 335.574 300.341 336.938 297.162 332.212 292.393 C 329.793 289.982 326.68 288.389 323.309 287.838 C 320.264 287.339 315.782 291.59 312.7 291.492 C 304.863 291.182 298.249 283.922 290.777 286.267 C 287.509 287.293 284.677 289.378 282.726 292.193 C 279.072 297.576 279.401 299.659 279.93 306.084 C 279.922 306.571 280.065 307.05 280.338 307.454 C 280.612 307.783 281.057 307.959 281.325 308.294 C 281.613 308.737 281.722 309.272 281.629 309.792 C 281.548 310.839 281.303 311.866 280.905 312.837 C 280.701 313.166 280.661 313.571 280.795 313.934 C 280.945 314.137 281.16 314.283 281.404 314.348 C 284.449 315.444 287.738 313.331 290.996 313.385 C 294.254 313.44 297.348 315.62 300.709 315.145 C 303.675 314.689 306.683 313.708 309.674 313.215 Z" fill="#2f2e41"/>
  
<animateTransform type="rotate" additive="sum" attributeName="transform" values="0;5;0" dur="2s" fill="freeze" repeatCount="indefinite"></animateTransform>

  </g>
  <g style="transform-origin: 307.674px 404.084px;" transform="matrix(0.998511, 0.0545527, -0.0545527, 0.998511, 0, 0)">
    <path d="M 309.516 445.525 C 309.313 445.603 309.102 445.657 308.887 445.687 L 282.46 449.376 C 281.143 449.565 279.871 448.815 279.398 447.572 L 256.651 388.381 C 256.025 386.752 256.992 384.948 258.695 384.568 L 258.695 384.568 L 283.547 379.022 C 283.739 378.979 283.924 378.911 284.099 378.821 L 308.271 366.183 C 308.457 366.085 308.654 366.008 308.858 365.954 L 335.46 358.862 C 336.871 358.483 338.34 359.233 338.862 360.597 L 358.696 412.208 C 359.05 413.122 358.909 414.154 358.321 414.939 L 351.462 424.15 C 351.139 424.584 350.7 424.917 350.195 425.111 L 335.204 430.872 C 335.097 430.913 334.993 430.963 334.893 431.02 L 309.912 445.337 C 309.785 445.409 309.653 445.472 309.516 445.525 Z" fill="#fff"/>
    <path d="M 321.811 366.753 L 318.433 367.654 L 309.481 370.041 L 309.465 370.045 L 297.21 376.453 L 292.661 378.832 L 292.659 378.833 L 285.828 382.404 L 285.641 382.446 L 278.545 384.028 L 275.115 384.795 L 261.127 387.917 L 283.087 445.058 L 297.501 443.046 L 301.036 442.552 L 308.569 441.499 L 308.656 441.488 L 332.863 427.614 L 347.591 421.954 L 354.316 412.924 L 335.2 363.184 L 321.811 366.753 Z" fill="#e4e4e4"/>
    <rect x="420.954" y="481.098" width="78.016" height="3.476" transform="matrix(0.933442, -0.358729, 0.358729, 0.933442, -299.992652, 101.296381)" fill="#fff"/>
    <rect x="425.111" y="491.915" width="78.016" height="3.476" transform="matrix(0.933442, -0.358729, 0.358729, 0.933442, -303.596259, 103.507571)" fill="#fff"/>
    <rect x="433.508" y="513.765" width="78.016" height="3.476" transform="matrix(0.933442, -0.358729, 0.358729, 0.933442, -310.875586, 107.974139)" fill="#fff"/>
    <polygon points="321.811 366.753 343.613 423.483 340.368 424.73 318.433 367.654 321.811 366.753" fill="#fff"/>
    <polygon points="297.21 376.453 292.733 388.91 291.181 393.23 287.56 403.312 286.784 405.467 286.007 407.633 284.985 410.476 277.646 430.901 275.738 425.936 281.722 409.28 283.076 405.509 283.274 404.959 284.875 400.5 286.895 394.878 288.448 390.556 292.659 378.833 292.661 378.832 297.21 376.453" fill="#fff"/>
    <polygon points="278.545 384.028 301.035 442.552 297.501 443.046 275.115 384.795 278.545 384.028" fill="#fff"/>
    <circle cx="273.73095" cy="429.7149" r="10.35285" fill="#ffb6b6"/>
    <animateTransform type="rotate" additive="sum" attributeName="transform" values="0;4;0" dur="2s" fill="freeze" repeatCount="indefinite"></animateTransform>

  </g>
  <path d="M 356.725 706.656 L 0.427 706.656 C 0.098 706.656 -0.107 706.3 0.057 706.015 C 0.134 705.883 0.275 705.802 0.427 705.802 L 356.725 705.802 C 357.054 705.802 357.259 706.158 357.095 706.442 C 357.019 706.575 356.878 706.656 356.725 706.656 Z" fill="#cacaca" style="" transform="matrix(1, 0, 0, 0.9999999999999999, 0, 0)"/>
</svg>