<svg id="visual" viewBox="0 0 900 600" width="900" height="600" xmlns="http://www.w3.org/2000/svg" xmlns:xlink="http://www.w3.org/1999/xlink" version="1.1"><path d="M0 85L13.7 83C27.3 81 54.7 77 82 70C109.3 63 136.7 53 163.8 53C191 53 218 63 245.2 63C272.3 63 299.7 53 327 58C354.3 63 381.7 83 409 87C436.3 91 463.7 79 491 77C518.3 75 545.7 83 573 86C600.3 89 627.7 87 654.8 87C682 87 709 89 736.2 91C763.3 93 790.7 95 818 93C845.3 91 872.7 85 886.3 82L900 79L900 0L886.3 0C872.7 0 845.3 0 818 0C790.7 0 763.3 0 736.2 0C709 0 682 0 654.8 0C627.7 0 600.3 0 573 0C545.7 0 518.3 0 491 0C463.7 0 436.3 0 409 0C381.7 0 354.3 0 327 0C299.7 0 272.3 0 245.2 0C218 0 191 0 163.8 0C136.7 0 109.3 0 82 0C54.7 0 27.3 0 13.7 0L0 0Z" fill="#6198ff"></path><path d="M0 307L13.7 290C27.3 273 54.7 239 82 240C109.3 241 136.7 277 163.8 284C191 291 218 269 245.2 247C272.3 225 299.7 203 327 207C354.3 211 381.7 241 409 255C436.3 269 463.7 267 491 262C518.3 257 545.7 249 573 242C600.3 235 627.7 229 654.8 233C682 237 709 251 736.2 251C763.3 251 790.7 237 818 224C845.3 211 872.7 199 886.3 193L900 187L900 77L886.3 80C872.7 83 845.3 89 818 91C790.7 93 763.3 91 736.2 89C709 87 682 85 654.8 85C627.7 85 600.3 87 573 84C545.7 81 518.3 73 491 75C463.7 77 436.3 89 409 85C381.7 81 354.3 61 327 56C299.7 51 272.3 61 245.2 61C218 61 191 51 163.8 51C136.7 51 109.3 61 82 68C54.7 75 27.3 79 13.7 81L0 83Z" fill="#3c80ff"></path><path d="M0 361L13.7 357C27.3 353 54.7 345 82 347C109.3 349 136.7 361 163.8 363C191 365 218 357 245.2 351C272.3 345 299.7 341 327 347C354.3 353 381.7 369 409 368C436.3 367 463.7 349 491 344C518.3 339 545.7 347 573 353C600.3 359 627.7 363 654.8 373C682 383 709 399 736.2 385C763.3 371 790.7 327 818 306C845.3 285 872.7 287 886.3 288L900 289L900 185L886.3 191C872.7 197 845.3 209 818 222C790.7 235 763.3 249 736.2 249C709 249 682 235 654.8 231C627.7 227 600.3 233 573 240C545.7 247 518.3 255 491 260C463.7 265 436.3 267 409 253C381.7 239 354.3 209 327 205C299.7 201 272.3 223 245.2 245C218 267 191 289 163.8 282C136.7 275 109.3 239 82 238C54.7 237 27.3 271 13.7 288L0 305Z" fill="#0066ff"></path><path d="M0 475L13.7 463C27.3 451 54.7 427 82 430C109.3 433 136.7 463 163.8 471C191 479 218 465 245.2 452C272.3 439 299.7 427 327 422C354.3 417 381.7 419 409 425C436.3 431 463.7 441 491 446C518.3 451 545.7 451 573 452C600.3 453 627.7 455 654.8 463C682 471 709 485 736.2 468C763.3 451 790.7 403 818 376C845.3 349 872.7 343 886.3 340L900 337L900 287L886.3 286C872.7 285 845.3 283 818 304C790.7 325 763.3 369 736.2 383C709 397 682 381 654.8 371C627.7 361 600.3 357 573 351C545.7 345 518.3 337 491 342C463.7 347 436.3 365 409 366C381.7 367 354.3 351 327 345C299.7 339 272.3 343 245.2 349C218 355 191 363 163.8 361C136.7 359 109.3 347 82 345C54.7 343 27.3 351 13.7 355L0 359Z" fill="#0059dd"></path><path d="M0 601L13.7 601C27.3 601 54.7 601 82 601C109.3 601 136.7 601 163.8 601C191 601 218 601 245.2 601C272.3 601 299.7 601 327 601C354.3 601 381.7 601 409 601C436.3 601 463.7 601 491 601C518.3 601 545.7 601 573 601C600.3 601 627.7 601 654.8 601C682 601 709 601 736.2 601C763.3 601 790.7 601 818 601C845.3 601 872.7 601 886.3 601L900 601L900 335L886.3 338C872.7 341 845.3 347 818 374C790.7 401 763.3 449 736.2 466C709 483 682 469 654.8 461C627.7 453 600.3 451 573 450C545.7 449 518.3 449 491 444C463.7 439 436.3 429 409 423C381.7 417 354.3 415 327 420C299.7 425 272.3 437 245.2 450C218 463 191 477 163.8 469C136.7 461 109.3 431 82 428C54.7 425 27.3 449 13.7 461L0 473Z" fill="#004cbb"></path></svg>