<svg id="visual" viewBox="0 0 900 600" width="900" height="600" xmlns="http://www.w3.org/2000/svg" xmlns:xlink="http://www.w3.org/1999/xlink" version="1.1"><path d="M0 229L37.5 230C75 231 150 233 225 234C300 235 375 235 450 232C525 229 600 223 675 224C750 225 825 233 862.5 237L900 241L900 0L862.5 0C825 0 750 0 675 0C600 0 525 0 450 0C375 0 300 0 225 0C150 0 75 0 37.5 0L0 0Z" fill="#004cbb"></path><path d="M0 451L37.5 454C75 457 150 463 225 464C300 465 375 461 450 458C525 455 600 453 675 455C750 457 825 463 862.5 466L900 469L900 239L862.5 235C825 231 750 223 675 222C600 221 525 227 450 230C375 233 300 233 225 232C150 231 75 229 37.5 228L0 227Z" fill="#6198ff"></path><path d="M0 601L37.5 601C75 601 150 601 225 601C300 601 375 601 450 601C525 601 600 601 675 601C750 601 825 601 862.5 601L900 601L900 467L862.5 464C825 461 750 455 675 453C600 451 525 453 450 456C375 459 300 463 225 462C150 461 75 455 37.5 452L0 449Z" fill="#004cbb"></path></svg>