<?xml version="1.0" encoding="utf-8"?>
<svg viewBox="173 0 763 567.6" xmlns="http://www.w3.org/2000/svg">
  <rect id="b85ae1dc-b170-4f54-a6de-4a72451950d7" data-name="Rectangle 62" x="175.25235" y="17.77538" width="648.36576" height="307.6608" fill="#e6e6e6" transform="matrix(1, 0, 0, 1, -5.684341886080802e-14, -2.842170943040401e-14)"/>
  <rect id="f015ec3e-20cc-40e8-8473-d753a9bdb685" data-name="Rectangle 75" x="193.79258" y="44.15783" width="611.2862" height="256.69103" fill="#fff" transform="matrix(1, 0, 0, 1, -5.684341886080802e-14, -2.842170943040401e-14)"/>
  <rect id="ed585d6d-4c60-4aae-9dcd-e3012a759289" data-name="Rectangle 80" x="174.97588" width="648.36576" height="27.5445" fill="#6c63ff" transform="matrix(1, 0, 0, 1, -5.684341886080802e-14, -2.842170943040401e-14)"/>
  <circle id="b43fe0fb-7393-4bbe-8dcd-48ed75608891" data-name="Ellipse 90" cx="195.44487" cy="12.74061" r="5.10527" fill="#fff" transform="matrix(1, 0, 0, 1, -5.684341886080802e-14, -2.842170943040401e-14)"/>
  <circle id="ada3e127-c3a1-446f-8730-bf32ed0f9b11" data-name="Ellipse 91" cx="214.8228" cy="12.74061" r="5.10527" fill="#fff" transform="matrix(1, 0, 0, 1, -5.684341886080802e-14, -2.842170943040401e-14)"/>
  <circle id="e3927273-efa9-4ef7-88ca-a022a07a6d22" data-name="Ellipse 92" cx="234.20163" cy="12.74061" r="5.10527" fill="#fff" transform="matrix(1, 0, 0, 1, -5.684341886080802e-14, -2.842170943040401e-14)"/>
  <polygon points="864.323 555.469 852.064 555.469 846.231 508.181 864.326 508.182 864.323 555.469" style="fill: rgb(255, 182, 182);" transform="matrix(1, 0, 0, 1, -5.684341886080802e-14, -2.842170943040401e-14)"/>
  <path d="M1001.45005,733.56042l-39.53076-.00147v-.5a15.38731,15.38731,0,0,1,15.38648-15.38623h.001l24.144.001Z" transform="matrix(1, 0, 0, 1, -134.00000000000006, -166.20693969726565)" fill="#2f2e41"/>
  <polygon points="820.323 555.469 808.064 555.469 802.231 508.181 820.326 508.182 820.323 555.469" style="fill: rgb(255, 182, 182);" transform="matrix(1, 0, 0, 1, -5.684341886080802e-14, -2.842170943040401e-14)"/>
  <path d="M957.45005,733.56042l-39.53076-.00147v-.5a15.38731,15.38731,0,0,1,15.38648-15.38623h.001l24.144.001Z" transform="matrix(1, 0, 0, 1, -134.00000000000006, -166.20693969726565)" fill="#2f2e41"/>
  <path d="M811.5379,390.32037a11.39632,11.39632,0,0,0,17.434,1.19462l24.25852,9.4731,9.35227-13.33777-34.44561-12.8967a11.45809,11.45809,0,0,0-16.5992,15.56675Z" transform="matrix(1, 0, 0, 1, -134.00000000000006, -166.20693969726565)" style="fill: rgb(255, 182, 182);"/>
  <polygon points="820.169 304.925 788.229 315.344 798.899 541.54 823.549 542.15 836.164 382.633 839.029 541.52 869.508 543.2 880.744 304.925 820.169 304.925" fill="#2f2e41" transform="matrix(1, 0, 0, 1, -5.684341886080802e-14, -2.842170943040401e-14)"/>
  <path d="M932.61811,337.79306l81.97476-17.81106,9.11584,70.585-7.5906,33.72606,3.04043,51.254s-64.81863,32.26134-96.92953,6.00367c0,0,25.809-67.78972,10.84908-99.52369Z" transform="matrix(1, 0, 0, 1, -134.00000000000006, -166.20693969726565)" fill="#3f3d56"/>
  <path d="M946.815,347.777l-14.19685-9.98394s-.83858-1.16142-12.66929,12.66929-35.83071,35.83071-35.83071,35.83071l-40-15-7.2874,26.92494,46.48819,21.664,65.816-43.95511Z" transform="matrix(1, 0, 0, 1, -134.00000000000006, -166.20693969726565)" fill="#3f3d56"/>
  <path d="M1019.17338,502.0057a11.39628,11.39628,0,0,0,4.42162-16.90625l13.82655-22.069-11.362-11.67333-19.088,31.44a11.45808,11.45808,0,0,0,12.20183,19.20864Z" transform="matrix(1, 0, 0, 1, -134.00000000000006, -166.20693969726565)" style="fill: rgb(255, 182, 182);"/>
  <path d="M1001.80709,333.887l12.78578-13.905s14.24626-4.96114,25.88575,20.675,24.63949,77.6361,24.63949,77.6361l-30.39487,58.54724-23.60513-10.54724,23.60513-48.41339L1009.74409,382.027Z" transform="matrix(1, 0, 0, 1, -134.00000000000006, -166.20693969726565)" fill="#3f3d56"/>
  <circle cx="967.36312" cy="290.84412" r="26.60917" transform="matrix(0.8774547534216919, -0.4796594163546441, 0.47965941635464415, 0.8774547534216919, -154.96036844594352, 333.4395164964226)" style="fill: rgb(255, 182, 182);"/>
  <path d="M992.38944,269.57145l1.29-2.59637-6.49095-3.225s-7.16055-11.651-20.11784-8.3768-18.787,5.23371-18.787,5.23371l-6.47453,3.25776,3.24953,3.23319-5.82954,1.95959,3.89455,1.935-4.53141,2.60456,2.43935,13.35188s4.0516-10.12689,11.84068-6.25692,22.0365-2.00053,22.0365-2.00053l12.37786,23.95508s2.55356-8.39745,7.1064-6.1583C994.39314,296.48832,1006.02446,277.96461,992.38944,269.57145Z" transform="matrix(1, 0, 0, 1, -134.00000000000006, -166.20693969726565)" fill="#2f2e41"/>
  <path d="M1065,733.79306H836a1,1,0,0,1,0-2h229a1,1,0,0,1,0,2Z" transform="matrix(1, 0, 0, 1, -134.00000000000006, -166.20693969726565)" fill="#cacaca"/>
  <g id="plane" transform="matrix(2.547128200531006, 0, 0, 2.547128200531006, 129.66379058973052, -381.11539503977804)" style="">
    <polygon points="121.163 219.162 121.756 234.886 120.312 234.886 120.312 236.666 124.349 236.666 124.349 234.886 123.171 234.886 123.255 219.162 121.163 219.162" fill="#3f3d56" style=""/>
    <path d="M 119.605 232.364 C 120.22 232.364 120.718 232.862 120.718 233.477 L 120.718 238.075 C 120.718 238.689 120.22 239.187 119.605 239.187 C 118.991 239.187 118.493 238.689 118.493 238.075 L 118.493 233.477 C 118.493 232.862 118.991 232.364 119.605 232.364 Z" fill="#3f3d56" style=""/>
    <path d="M 125.242 232.364 C 125.856 232.364 126.354 232.862 126.354 233.477 L 126.354 238.075 C 126.354 238.689 125.856 239.187 125.242 239.187 C 124.628 239.187 124.129 238.689 124.129 238.075 L 124.129 233.477 C 124.129 232.862 124.628 232.364 125.242 232.364 Z" fill="#3f3d56" style=""/>
    <polygon points="134.291 209.366 111.447 208.327 115.007 206.696 135.032 206.993 134.291 209.366" fill="#6c63ff" style=""/>
    <polygon points="43.214 211.672 45.973 210.633 131.62 212.859 135.18 211.227 133.697 221.313 65.663 214.064 43.214 211.672" fill="#6c63ff" style=""/>
    <polygon points="65.242 217.531 65.663 214.064 133.697 221.313 133.326 226.431 65.242 217.531" fill="#3f3d56" style=""/>
    <ellipse cx="111.002" cy="220.275" rx="7.046" ry="7.491" fill="#3f3d56" style=""/>
    <circle cx="111.002" cy="218.94" r="5.192" fill="#6c63ff" style=""/>
    <polygon points="168.926 219.162 168.332 234.886 169.776 234.886 169.776 236.666 165.74 236.666 165.74 234.886 166.918 234.886 166.833 219.162 168.926 219.162" fill="#3f3d56" style=""/>
    <rect x="169.371" y="232.364" width="2.225" height="6.823" rx="5.428" ry="5.428" fill="#3f3d56" style=""/>
    <rect x="163.734" y="232.364" width="2.225" height="6.823" rx="5.428" ry="5.428" fill="#3f3d56" style=""/>
    <polygon points="155.799 209.366 178.642 208.327 175.082 206.696 155.057 206.993 155.799 209.366" fill="#6c63ff" style=""/>
    <polygon points="147.622 206.171 146.584 183.327 144.952 186.887 145.249 206.912 147.622 206.171" fill="#6c63ff" style=""/>
    <polygon points="246.875 211.672 244.116 210.633 158.468 212.859 154.909 211.227 156.392 221.313 224.425 214.064 246.875 211.672" fill="#6c63ff" style=""/>
    <polygon points="224.848 217.531 224.425 214.064 156.392 221.313 156.763 226.431 224.848 217.531" fill="#3f3d56" style=""/>
    <ellipse cx="179.087" cy="220.275" rx="7.046" ry="7.491" fill="#3f3d56" style=""/>
    <circle cx="179.087" cy="218.94" r="5.192" fill="#6c63ff" style=""/>
    <path d="M 157.986 206.521 L 157.65 209.002 L 157.475 222.358 C 157.461 223.352 157.341 224.333 157.116 225.286 C 156.466 228.06 154.949 230.583 152.707 232.412 C 150.674 234.073 147.9 235.33 144.229 235.108 C 134.439 234.515 133.574 226.183 133.574 226.183 L 133.943 211.074 L 133.993 209.002 L 134.439 205.263 C 134.439 205.263 135.625 194.731 146.602 195.028 C 157.578 195.325 157.986 206.521 157.986 206.521 Z" fill="#6c63ff" style=""/>
    <polygon points="136.812 203.038 139.037 199.478 141.855 198.588 151.497 198.588 153.87 199.478 156.024 203.038 152.09 201.258 141.055 201.258 136.812 203.038" fill="#e6e6e6" style=""/>
    <rect x="94.34" y="38.077" width="7.657" height="0.41" transform="matrix(0.267619, -0.963525, 0.963525, 0.267619, 78.225816, 284.488653)" fill="#6c63ff" style=""/>
    <rect x="108.621" y="35.683" width="0.41" height="7.657" transform="matrix(0.981236, -0.192813, 0.192813, 0.981236, 37.637933, 183.588001)" fill="#6c63ff" style=""/>
<animateTransform type="rotate" additive="sum" attributeName="transform" values="0;2;0;-2;0" begin="0s" dur="10s" fill="freeze" repeatCount="indefinite"></animateTransform>
  </g>
</svg>