<?xml version="1.0" encoding="utf-8"?>
<!-- Generator: Adobe Illustrator 16.0.0, SVG Export Plug-In . SVG Version: 6.00 Build 0)  -->
<!DOCTYPE svg PUBLIC "-//W3C//DTD SVG 1.1//EN" "http://www.w3.org/Graphics/SVG/1.1/DTD/svg11.dtd">
<svg version="1.1" id="Layer_1" xmlns="http://www.w3.org/2000/svg" xmlns:xlink="http://www.w3.org/1999/xlink" x="0px" y="0px"
	 width="151.566px" height="70.024px" viewBox="0 0 151.566 70.024" enable-background="new 0 0 151.566 70.024"
	 xml:space="preserve">
<g>
	<g>
		<g>
			<linearGradient id="SVGID_1_" gradientUnits="userSpaceOnUse" x1="53.5547" y1="19.7529" x2="96.9033" y2="19.7529">
				<stop  offset="0" style="stop-color:#D74F59"/>
				<stop  offset="0.5033" style="stop-color:#FF7133"/>
				<stop  offset="1" style="stop-color:#FF9A2B"/>
			</linearGradient>
			<path fill="url(#SVGID_1_)" d="M77.122,39.506l-7.039-7.02l-3.774,3.768L53.786,23.753l0.012-0.012l-0.243-0.243l3.759-3.749
				l-3.375-3.367L66.311,4.087l3.354,3.348L77.122,0l19.781,19.753L77.122,39.506z M71.953,30.619l5.167,5.154l16.043-16.02
				L77.12,3.733l-5.586,5.569L82.418,20.17L71.953,30.619z M57.284,23.511l9.024,9.009l1.903-1.9l-9.027-9.004L57.284,23.511z
				 M61.056,19.75l9.026,9.003l8.597-8.583l-9.016-9.002L61.056,19.75z M57.684,16.387l1.501,1.498l8.608-8.584l-1.486-1.484
				L57.684,16.387z"/>
		</g>
		<g>
			<path fill="#0A2659" d="M1.382,46.802v6.068H0.275v-6.068H1.382z"/>
			<path fill="#0A2659" d="M2.875,52.257l3.097-4.51V47.72H3.146v-0.918h4.268v0.648l-3.061,4.474v0.027h3.106v0.918H2.875V52.257z"
				/>
			<path fill="#0A2659" d="M9.005,46.892c0.351-0.072,0.99-0.135,1.621-0.135c0.81,0,1.323,0.108,1.729,0.387
				c0.378,0.225,0.63,0.621,0.63,1.143c0,0.558-0.351,1.062-1.008,1.306v0.027c0.64,0.162,1.225,0.666,1.225,1.495
				c0,0.54-0.234,0.963-0.576,1.26c-0.432,0.369-1.144,0.558-2.26,0.558c-0.612,0-1.071-0.045-1.359-0.081V46.892z M10.103,49.287
				h0.567c0.774,0,1.197-0.36,1.197-0.874c0-0.576-0.432-0.837-1.134-0.837c-0.324,0-0.513,0.018-0.63,0.045V49.287z M10.103,52.068
				c0.144,0.027,0.333,0.027,0.585,0.027c0.711,0,1.351-0.261,1.351-1.008c0-0.711-0.622-0.999-1.387-0.999h-0.549V52.068z"/>
			<path fill="#0A2659" d="M16.007,51.15l-0.522,1.72h-1.144l1.945-6.068H17.7l1.972,6.068h-1.197l-0.549-1.72H16.007z
				 M17.745,50.313l-0.478-1.495c-0.117-0.369-0.216-0.783-0.306-1.134h-0.018c-0.09,0.351-0.189,0.774-0.288,1.134l-0.468,1.495
				H17.745z"/>
			<path fill="#0A2659" d="M23.639,46.883c0.405-0.072,0.954-0.126,1.692-0.126c0.811,0,1.396,0.171,1.783,0.495
				c0.36,0.297,0.594,0.774,0.594,1.341c0,0.576-0.18,1.044-0.513,1.369c-0.45,0.441-1.134,0.657-1.917,0.657
				c-0.207,0-0.387-0.009-0.541-0.045v2.296h-1.098V46.883z M24.737,49.701c0.144,0.045,0.315,0.054,0.541,0.054
				c0.828,0,1.332-0.415,1.332-1.117c0-0.675-0.468-1.026-1.233-1.026c-0.306,0-0.522,0.027-0.639,0.054V49.701z"/>
			<path fill="#0A2659" d="M29.299,46.892c0.423-0.081,1.035-0.135,1.674-0.135c0.874,0,1.458,0.144,1.873,0.486
				c0.333,0.279,0.522,0.702,0.522,1.224c0,0.783-0.531,1.314-1.107,1.513v0.027c0.441,0.162,0.702,0.585,0.846,1.17
				c0.198,0.756,0.36,1.458,0.477,1.692H32.45c-0.09-0.18-0.243-0.675-0.405-1.432c-0.18-0.792-0.459-1.044-1.089-1.062h-0.559
				v2.494h-1.098V46.892z M30.397,49.565h0.657c0.748,0,1.207-0.396,1.207-0.999c0-0.657-0.459-0.972-1.179-0.972
				c-0.351,0-0.576,0.027-0.685,0.054V49.565z"/>
			<path fill="#0A2659" d="M34.645,52.257l3.097-4.51V47.72h-2.827v-0.918h4.268v0.648l-3.061,4.474v0.027h3.106v0.918h-4.583
				V52.257z"/>
			<path fill="#0A2659" d="M44.168,50.178h-2.287v1.783h2.557v0.909h-3.664v-6.068h3.529v0.909h-2.422v1.566h2.287V50.178z"/>
			<path fill="#0A2659" d="M51.161,50.394c-0.035-0.783-0.08-1.729-0.071-2.548h-0.027c-0.198,0.738-0.45,1.558-0.72,2.323
				l-0.892,2.628h-0.846l-0.811-2.593c-0.234-0.774-0.45-1.602-0.612-2.358h-0.018c-0.027,0.792-0.063,1.755-0.108,2.583
				l-0.135,2.44h-1.035l0.405-6.068h1.458l0.792,2.44c0.216,0.711,0.405,1.431,0.558,2.106h0.027
				c0.162-0.657,0.369-1.404,0.604-2.116l0.837-2.431h1.44l0.352,6.068h-1.081L51.161,50.394z"/>
			<path fill="#0A2659" d="M55.489,52.87v-2.53l-1.918-3.538h1.27l0.721,1.558c0.207,0.45,0.359,0.792,0.531,1.206h0.018
				c0.145-0.387,0.315-0.765,0.522-1.206l0.729-1.558h1.251l-2.017,3.511v2.557H55.489z"/>
			<path fill="#0A2659" d="M59.701,51.663c0.352,0.207,0.9,0.387,1.468,0.387c0.702,0,1.098-0.333,1.098-0.828
				c0-0.459-0.306-0.729-1.071-1.008c-1.008-0.36-1.647-0.891-1.647-1.765c0-0.999,0.828-1.747,2.152-1.747
				c0.657,0,1.134,0.144,1.449,0.306L62.889,47.9c-0.226-0.117-0.648-0.288-1.216-0.288c-0.702,0-0.999,0.369-0.999,0.729
				c0,0.468,0.351,0.684,1.161,0.999c1.054,0.396,1.558,0.928,1.558,1.801c0,0.981-0.738,1.828-2.296,1.828
				c-0.648,0-1.314-0.18-1.647-0.387L59.701,51.663z"/>
			<path fill="#0A2659" d="M65.065,52.87v-2.26l-0.712,0.504v-0.792l0.712-0.504v-3.016h1.107v2.278l1.161-0.819v0.801l-1.161,0.819
				v2.062h2.493v0.927H65.065z"/>
			<path fill="#0A2659" d="M75.174,49.773c0,2.034-1.233,3.196-2.898,3.196c-1.72,0-2.8-1.314-2.8-3.088
				c0-1.873,1.18-3.187,2.89-3.187C74.13,46.694,75.174,48.035,75.174,49.773z M70.646,49.854c0,1.243,0.621,2.224,1.684,2.224
				c1.071,0,1.675-1,1.675-2.269c0-1.143-0.567-2.224-1.675-2.224C71.231,47.585,70.646,48.603,70.646,49.854z"/>
			<path fill="#0A2659" d="M77.71,52.87l-1.485-6.068h1.18l0.576,2.755c0.153,0.738,0.297,1.512,0.396,2.116h0.018
				c0.099-0.639,0.271-1.359,0.441-2.125l0.657-2.746h1.161l0.604,2.791c0.144,0.72,0.278,1.396,0.369,2.052h0.018
				c0.108-0.666,0.252-1.359,0.414-2.106l0.63-2.737h1.126l-1.639,6.068h-1.18l-0.63-2.854c-0.153-0.693-0.261-1.269-0.342-1.926
				h-0.019c-0.099,0.648-0.216,1.233-0.396,1.926l-0.703,2.854H77.71z"/>
			<path fill="#0A2659" d="M90.519,49.773c0,2.034-1.233,3.196-2.898,3.196c-1.72,0-2.8-1.314-2.8-3.088
				c0-1.873,1.18-3.187,2.89-3.187C89.475,46.694,90.519,48.035,90.519,49.773z M85.99,49.854c0,1.243,0.621,2.224,1.684,2.224
				c1.071,0,1.675-1,1.675-2.269c0-1.143-0.567-2.224-1.675-2.224C86.576,47.585,85.99,48.603,85.99,49.854z"/>
			<path fill="#0A2659" d="M96.521,49.413v0.765h-2.295v-0.765H96.521z"/>
			<path fill="#0A2659" d="M101.66,46.802v2.431h2.566v-2.431h1.107v6.068h-1.107v-2.674h-2.566v2.674h-1.107v-6.068H101.66z"/>
			<path fill="#0A2659" d="M108.445,51.15l-0.521,1.72h-1.143l1.943-6.068h1.414l1.971,6.068h-1.197l-0.549-1.72H108.445z
				 M110.183,50.313l-0.477-1.495c-0.117-0.369-0.217-0.783-0.307-1.134h-0.018c-0.09,0.351-0.189,0.774-0.289,1.134l-0.469,1.495
				H110.183z"/>
			<path fill="#0A2659" d="M113.574,52.87v-6.068h1.27l1.566,2.602c0.396,0.675,0.758,1.377,1.035,2.034h0.02
				c-0.082-0.81-0.1-1.593-0.1-2.521v-2.116h1.025v6.068h-1.152l-1.584-2.674c-0.387-0.666-0.783-1.404-1.08-2.088l-0.035,0.009
				c0.045,0.783,0.062,1.584,0.062,2.584v2.169H113.574z"/>
			<path fill="#0A2659" d="M120.298,46.883c0.494-0.072,1.105-0.126,1.764-0.126c1.135,0,1.908,0.234,2.467,0.702
				c0.594,0.477,0.955,1.207,0.955,2.233c0,1.089-0.369,1.89-0.945,2.413c-0.604,0.549-1.566,0.828-2.746,0.828
				c-0.641,0-1.125-0.036-1.494-0.081V46.883z M121.404,52.032c0.154,0.027,0.389,0.027,0.613,0.027
				c1.439,0.009,2.295-0.792,2.295-2.332c0.01-1.332-0.764-2.106-2.15-2.106c-0.352,0-0.596,0.027-0.758,0.063V52.032z"/>
			<path fill="#0A2659" d="M127.076,46.802h1.105v5.141h2.494v0.927h-3.6V46.802z"/>
			<path fill="#0A2659" d="M137.173,49.773c0,2.034-1.232,3.196-2.898,3.196c-1.719,0-2.799-1.314-2.799-3.088
				c0-1.873,1.18-3.187,2.889-3.187C136.13,46.694,137.173,48.035,137.173,49.773z M132.646,49.854c0,1.243,0.621,2.224,1.684,2.224
				c1.07,0,1.674-1,1.674-2.269c0-1.143-0.566-2.224-1.674-2.224C133.232,47.585,132.646,48.603,132.646,49.854z"/>
			<path fill="#0A2659" d="M139.71,52.87l-1.484-6.068h1.18l0.576,2.755c0.152,0.738,0.297,1.512,0.396,2.116h0.018
				c0.098-0.639,0.27-1.359,0.441-2.125l0.656-2.746h1.162l0.604,2.791c0.143,0.72,0.277,1.396,0.369,2.052h0.018
				c0.107-0.666,0.252-1.359,0.414-2.106l0.629-2.737h1.127l-1.639,6.068h-1.18l-0.631-2.854c-0.152-0.693-0.26-1.269-0.342-1.926
				h-0.018c-0.1,0.648-0.217,1.233-0.396,1.926l-0.703,2.854H139.71z"/>
			<path fill="#0A2659" d="M147.902,51.15l-0.523,1.72h-1.143l1.945-6.068h1.412l1.973,6.068h-1.197l-0.549-1.72H147.902z
				 M149.638,50.313l-0.477-1.495c-0.117-0.369-0.217-0.783-0.307-1.134h-0.018c-0.09,0.351-0.189,0.774-0.287,1.134l-0.469,1.495
				H149.638z"/>
		</g>
		<g>
			<path fill="#0A2659" d="M0,68.917l4.818-7.018v-0.042H0.42v-1.429h6.64v1.008l-4.762,6.962v0.042H7.13v1.429H0V68.917z"/>
			<path fill="#0A2659" d="M12.657,60.429v9.441h-1.723v-9.441H12.657z"/>
			<path fill="#0A2659" d="M22.291,65.681h-3.558v2.774h3.979v1.415H17.01v-9.441h5.491v1.415h-3.768v2.438h3.558V65.681z"/>
			<path fill="#0A2659" d="M34.57,66.018c-0.056-1.219-0.126-2.689-0.112-3.964h-0.042c-0.308,1.149-0.7,2.423-1.121,3.614
				l-1.387,4.09h-1.316l-1.261-4.034c-0.364-1.205-0.701-2.493-0.953-3.67h-0.028c-0.042,1.233-0.098,2.731-0.168,4.021l-0.21,3.796
				h-1.611l0.63-9.441h2.269l1.233,3.796c0.336,1.106,0.63,2.227,0.869,3.278h0.042c0.252-1.022,0.574-2.185,0.938-3.292
				l1.303-3.782h2.241l0.546,9.441h-1.681L34.57,66.018z"/>
			<path fill="#0A2659" d="M42.281,60.429v9.441h-1.723v-9.441H42.281z"/>
			<path fill="#0A2659" d="M51.911,60.569c0.659-0.126,1.611-0.21,2.605-0.21c1.359,0,2.27,0.224,2.914,0.756
				c0.519,0.435,0.812,1.093,0.812,1.905c0,1.219-0.826,2.045-1.723,2.353v0.042c0.686,0.252,1.092,0.911,1.316,1.821
				c0.308,1.176,0.561,2.269,0.742,2.633h-1.765c-0.141-0.28-0.379-1.051-0.631-2.227c-0.28-1.233-0.714-1.625-1.694-1.653H53.62
				v3.88h-1.709V60.569z M53.62,64.729h1.022c1.163,0,1.878-0.617,1.878-1.555c0-1.022-0.715-1.513-1.836-1.513
				c-0.546,0-0.896,0.042-1.064,0.084V64.729z"/>
			<path fill="#0A2659" d="M64.246,67.194l-0.812,2.675h-1.779l3.025-9.441h2.199l3.068,9.441h-1.863l-0.854-2.675H64.246z
				 M66.949,65.892l-0.742-2.325c-0.183-0.575-0.336-1.219-0.477-1.765h-0.027c-0.141,0.546-0.295,1.205-0.448,1.765l-0.729,2.325
				H66.949z"/>
			<path fill="#0A2659" d="M73.639,60.555c0.771-0.112,1.724-0.196,2.746-0.196c1.765,0,2.97,0.364,3.838,1.093
				c0.925,0.742,1.484,1.877,1.484,3.474c0,1.695-0.574,2.942-1.471,3.754c-0.938,0.854-2.437,1.289-4.272,1.289
				c-0.994,0-1.75-0.056-2.325-0.126V60.555z M75.362,68.567c0.238,0.042,0.602,0.042,0.952,0.042
				c2.241,0.014,3.572-1.232,3.572-3.628c0.014-2.073-1.19-3.278-3.348-3.278c-0.547,0-0.925,0.042-1.177,0.098V68.567z"/>
			<path fill="#0A2659" d="M93.958,65.051c0,3.166-1.919,4.973-4.511,4.973c-2.675,0-4.356-2.045-4.356-4.805
				c0-2.914,1.835-4.959,4.497-4.959C92.333,60.26,93.958,62.348,93.958,65.051z M86.912,65.177c0,1.933,0.967,3.46,2.619,3.46
				c1.667,0,2.605-1.555,2.605-3.53c0-1.779-0.882-3.46-2.605-3.46C87.822,61.647,86.912,63.23,86.912,65.177z"/>
			<path fill="#0A2659" d="M105.787,66.018c-0.055-1.219-0.125-2.689-0.111-3.964h-0.043c-0.307,1.149-0.699,2.423-1.119,3.614
				l-1.387,4.09h-1.318l-1.26-4.034c-0.363-1.205-0.701-2.493-0.953-3.67h-0.028c-0.042,1.233-0.098,2.731-0.168,4.021l-0.21,3.796
				h-1.61l0.63-9.441h2.269l1.232,3.796c0.336,1.106,0.631,2.227,0.869,3.278h0.041c0.254-1.022,0.574-2.185,0.939-3.292
				l1.303-3.782h2.24l0.547,9.441h-1.682L105.787,66.018z"/>
			<path fill="#0A2659" d="M111.748,67.993c0.545,0.322,1.4,0.602,2.283,0.602c1.092,0,1.709-0.518,1.709-1.289
				c0-0.714-0.477-1.135-1.668-1.569c-1.568-0.56-2.562-1.387-2.562-2.746c0-1.555,1.289-2.717,3.348-2.717
				c1.021,0,1.764,0.224,2.254,0.476l-0.406,1.387c-0.35-0.182-1.008-0.448-1.891-0.448c-1.092,0-1.555,0.575-1.555,1.135
				c0,0.729,0.547,1.064,1.807,1.555c1.639,0.617,2.424,1.443,2.424,2.802c0,1.527-1.148,2.844-3.572,2.844
				c-1.008,0-2.045-0.28-2.562-0.603L111.748,67.993z"/>
			<path fill="#0A2659" d="M121.421,60.429h1.709v4.342h0.041c0.225-0.364,0.463-0.701,0.688-1.022l2.479-3.32h2.115l-3.25,4.02
				l3.461,5.421h-2.018l-2.662-4.328l-0.854,1.008v3.32h-1.709V60.429z"/>
			<path fill="#0A2659" d="M133.671,60.429v9.441h-1.723v-9.441H133.671z"/>
			<path fill="#0A2659" d="M143.306,65.681h-3.559v2.774h3.979v1.415h-5.701v-9.441h5.49v1.415h-3.768v2.438h3.559V65.681z"/>
			<path fill="#0A2659" d="M149.771,60.429h1.725v6.121c0,2.605-1.262,3.474-3.125,3.474c-0.49,0-1.078-0.084-1.457-0.224
				l0.211-1.387c0.279,0.098,0.658,0.168,1.064,0.168c0.98,0,1.582-0.448,1.582-2.087V60.429z"/>
		</g>
	</g>
</g>
</svg>
